<?xml version="1.0" encoding="UTF-8" standalone="no"?>
<!-- Created with Inkscape (http://www.inkscape.org/) -->

<svg
   width="50.800007mm"
   height="50.799999mm"
   viewBox="0 0 50.800007 50.799999"
   version="1.1"
   id="svg1"
   xml:space="preserve"
   xmlns="http://www.w3.org/2000/svg"
   xmlns:svg="http://www.w3.org/2000/svg"><defs
     id="defs1" /><g
     id="layer1"
     transform="translate(-79.639582,-184.79839)"><g
       id="g1"
       transform="translate(0,61.767123)"><path
         style="fill:#fefefe"
         d="m 103.3198,155.87278 c -3.10913,-0.82637 -5.105431,-3.14039 -5.650416,-6.54968 -0.603827,-3.7774 0.978149,-7.24948 4.062916,-8.91718 1.58095,-0.85471 5.56833,-0.82825 7.34938,0.0488 1.35027,0.6649 2.42153,1.84811 2.70618,2.98898 0.16684,0.6687 0.1101,0.71486 -1.23263,1.00282 -1.06608,0.22863 -1.43241,0.22716 -1.51015,-0.006 -0.26604,-0.79813 -1.57799,-1.87765 -2.55028,-2.09848 -2.24501,-0.50989 -4.3554,0.38996 -5.29167,2.25633 -0.79292,1.5806 -0.74449,5.15902 0.0895,6.61109 0.92222,1.60578 1.7495,2.09116 3.75756,2.20462 1.37848,0.0779 1.98805,-0.0218 2.97802,-0.48716 1.20539,-0.5666 1.24475,-0.62183 1.24475,-1.74659 v -1.16149 h -1.85208 -1.85209 v -1.32292 -1.32291 h 3.44773 3.44773 l -0.0743,3.24114 -0.0743,3.24115 -1.99578,1.01345 c -1.71093,0.86881 -2.29624,1.02785 -4.10104,1.11427 -1.1579,0.0554 -2.46245,0.006 -2.89901,-0.11015 z"
         id="path7" /><path
         style="fill:#7dddd0"
         d="m 105.38346,148.69583 c 0,-0.80036 0.0496,-1.12778 0.11022,-0.7276 0.0606,0.40018 0.0606,1.05502 0,1.45521 -0.0606,0.40018 -0.11022,0.0728 -0.11022,-0.72761 z"
         id="path6" /><path
         style="fill:#62d6c6"
         d="m 109.06972,151.07708 c 0,-0.50932 0.0545,-0.71768 0.121,-0.46302 0.0666,0.25466 0.0666,0.67138 0,0.92604 -0.0665,0.25467 -0.121,0.0463 -0.121,-0.46302 z"
         id="path5" /><path
         style="fill:#46d0bd"
         d="m 107.2224,147.17671 c 0.98227,-0.0509 2.58961,-0.0509 3.57187,0 0.98227,0.0509 0.1786,0.0926 -1.78593,0.0926 -1.96453,0 -2.76821,-0.0417 -1.78594,-0.0926 z"
         id="path4" /><path
         style="fill:#19c4ac"
         d="m 112.54988,150.54792 c 0,-1.81901 0.0423,-2.56315 0.0939,-1.65365 0.0517,0.90951 0.0517,2.39779 0,3.30729 -0.0517,0.90951 -0.0939,0.16537 -0.0939,-1.65364 z"
         id="path3" /><path
         style="fill:#10c2aa"
         d="m 106.29046,150.09237 c 0.46969,-0.0584 1.30313,-0.0594 1.85208,-0.002 0.54895,0.0573 0.16465,0.1051 -0.85399,0.10627 -1.01865,0.001 -1.46779,-0.0457 -0.99809,-0.10414 z"
         id="path2" /><path
         style="fill:#00bea4"
         d="m 79.639587,148.43125 v -25.4 h 25.400003 25.4 v 25.4 25.4 h -25.4 -25.400003 z m 29.142443,7.41759 c 0.92483,-0.28595 2.18753,-0.84834 2.80599,-1.24975 l 1.12448,-0.72983 v -3.38046 -3.38047 h -3.70416 -3.70417 v 1.5875 1.5875 h 1.85208 1.85209 v 0.93898 c 0,0.84823 -0.10868,0.98831 -1.12448,1.4494 -1.54406,0.70087 -3.70736,0.68587 -4.87179,-0.0338 -1.70672,-1.05481 -2.63201,-4.30386 -1.94696,-6.83652 0.61911,-2.2889 3.07381,-3.80218 5.21052,-3.21221 1.0298,0.28434 2.46812,1.48197 2.46812,2.0551 0,0.42499 0.28963,0.43089 2.2107,0.0451 1.64672,-0.33071 1.67475,-0.41016 0.771,-2.18513 -1.34075,-2.63324 -5.44803,-3.80077 -9.3228,-2.65009 -1.89525,0.56283 -3.974795,2.60829 -4.616775,4.54111 -0.522037,1.57171 -0.612398,4.73158 -0.179973,6.29357 1.262721,4.56115 6.015658,6.75557 11.176128,5.16 z"
         id="path1" /></g></g></svg>
